<?xml version="1.0" encoding="UTF-8" standalone="no"?>
<!-- Created with Inkscape (http://www.inkscape.org/) -->

<svg
   xmlns:dc="http://purl.org/dc/elements/1.1/"
   xmlns:cc="http://creativecommons.org/ns#"
   xmlns:rdf="http://www.w3.org/1999/02/22-rdf-syntax-ns#"
   xmlns:svg="http://www.w3.org/2000/svg"
   xmlns="http://www.w3.org/2000/svg"
   xmlns:sodipodi="http://sodipodi.sourceforge.net/DTD/sodipodi-0.dtd"
   xmlns:inkscape="http://www.inkscape.org/namespaces/inkscape"
   width="466.8472mm"
   height="586.70032mm"
   viewBox="0 0 466.8472 586.70032"
   version="1.1"
   id="svg8"
   inkscape:version="0.92.5 (2060ec1f9f, 2020-04-08)"
   sodipodi:docname="bg.svg">
  <defs
     id="defs2" />
  <sodipodi:namedview
     id="base"
     pagecolor="#ffffff"
     bordercolor="#666666"
     borderopacity="1.0"
     inkscape:pageopacity="0.0"
     inkscape:pageshadow="2"
     inkscape:zoom="0.35"
     inkscape:cx="1600.7687"
     inkscape:cy="1169.8571"
     inkscape:document-units="mm"
     inkscape:current-layer="layer1"
     showgrid="false"
     fit-margin-top="0"
     fit-margin-left="0"
     fit-margin-right="0"
     fit-margin-bottom="0"
     inkscape:window-width="2964"
     inkscape:window-height="1600"
     inkscape:window-x="108"
     inkscape:window-y="54"
     inkscape:window-maximized="1" />
  <metadata
     id="metadata5">
    <rdf:RDF>
      <cc:Work
         rdf:about="">
        <dc:format>image/svg+xml</dc:format>
        <dc:type
           rdf:resource="http://purl.org/dc/dcmitype/StillImage" />
        <dc:title></dc:title>
      </cc:Work>
    </rdf:RDF>
  </metadata>
  <g
     inkscape:label="Layer 1"
     inkscape:groupmode="layer"
     id="layer1"
     transform="translate(550.15874,128.34226)">
    <path
       inkscape:connector-curvature="0"
       id="path832"
       d="m -550.15871,456.37886 c 0.0403,-3.90958 6.5353,-22.67398 9.71313,-28.06195 1.78394,-3.02466 4.53374,-10.50593 6.11065,-16.62504 1.57691,-6.1191 7.91959,-21.44809 14.09484,-34.0644 6.38784,-13.05068 11.22392,-24.9948 11.21889,-27.7084 -0.0125,-6.77053 -2.94537,-16.47393 -6.42636,-21.26185 -2.58585,-3.55669 -2.74683,-5.02203 -1.23225,-11.2162 0.9582,-3.91876 1.64267,-9.03683 1.52104,-11.37351 -0.12163,-2.33665 0.90188,-7.55627 2.27447,-11.59913 2.25147,-6.63155 2.25672,-7.71525 0.0536,-11.07758 -1.34309,-2.04982 -2.90384,-6.61525 -3.46834,-10.14541 -0.8057,-5.03856 -0.48842,-6.6249 1.47578,-7.37863 2.80224,-1.07531 7.3942,-15.16657 7.3942,-22.69044 0,-3.26396 0.78009,-4.90216 2.33435,-4.90216 1.28389,0 3.39286,-2.04694 4.6866,-4.54877 1.29374,-2.50181 3.80579,-4.92886 5.58234,-5.39345 1.84147,-0.48155 3.23008,-2.15631 3.23008,-3.89569 0,-4.22106 1.66689,-5.48053 4.32917,-3.27104 2.75113,2.28323 5.7041,-1.30794 4.15894,-5.05777 -3.6886,-8.95159 -1.33856,-16.47817 6.12179,-19.60654 2.85,-1.19511 12.18428,-4.45437 20.74285,-7.24282 22.98974,-7.49023 25.35729,-9.22877 28.67567,-21.05693 1.52535,-5.43703 4.23518,-14.74255 6.02183,-20.67892 3.38277,-11.23967 3.68083,-15.22406 1.89542,-25.33745 -0.77101,-4.36738 -2.1156,-6.44589 -4.83989,-7.48166 -4.6137,-1.75412 -4.88586,-6.34738 -0.60561,-10.22095 3.44962,-3.12187 4.3509,-13.037151 1.64469,-18.093744 -1.06791,-1.995401 -0.84674,-3.735789 0.74131,-5.833426 1.24482,-1.644264 2.28596,-6.467964 2.31366,-10.719367 0.0327,-5.024609 1.21744,-9.618171 3.38519,-13.125659 1.83416,-2.967728 2.99608,-6.691262 2.58205,-8.27452 -0.41404,-1.583258 -0.10419,-4.037779 0.6887,-5.45447 1.01806,-1.819159 0.44973,-3.917255 -1.93466,-7.142323 -2.83643,-3.836474 -3.26862,-6.181729 -2.70345,-14.669952 0.37,-5.55688 2.19321,-13.9492794 4.05158,-18.6497483 3.50549,-8.8666565 3.2534,-12.7583247 -0.61834,-9.545069 -3.33995,2.7719167 -2.69377,0.2440556 0.93263,-3.6484207 3.3608,-3.60738 4.22344,-9.878599 1.58334,-11.510275 -6.03971,-3.732749 6.57839,-21.481548 17.62462,-24.791086 5.35174,-1.603414 6.19473,-2.425736 5.46543,-5.331461 -1.90538,-7.591627 2.61976,-16.160457 13.32671,-25.235592 5.66043,-4.797733 11.51951,-8.733023 13.02018,-8.745088 2.57235,-0.02074 12.6774,-4.118798 22.06621,-8.948974 2.31623,-1.19162 5.27959,-1.756634 6.58526,-1.255602 1.30565,0.501015 5.11057,0.108933 8.45537,-0.87139 30.40069,-8.909753 36.2006,-9.945103 54.37325,-9.706163 30.03529,0.3949 42.48659,6.0497 49.19833,22.343537 2.55013,6.19088 7.39996,12.628349 16.77637,22.26826 12.4084,12.75709 13.3776,14.256938 16.3706,25.333395 1.74975,6.475421 3.90378,15.335998 4.78673,19.690175 0.88297,4.354177 2.94544,12.9041982 4.58329,19.0000464 6.93448,25.8091876 8.18267,33.4604276 7.13186,43.7169846 -0.7515,7.335174 -0.39505,11.692502 1.2856,15.714843 1.55177,3.713892 1.87083,6.794464 0.95902,9.259324 -1.15633,3.125856 -0.39076,4.58563 4.97937,9.494403 3.49018,3.190329 6.34578,6.418722 6.34578,7.174179 0,0.755474 -2.20041,4.949702 -4.88981,9.320536 -4.0848,6.638647 -4.61237,8.555867 -3.20453,11.645697 0.92689,2.03432 1.25698,5.84014 0.73355,8.45738 -0.60668,3.03333 -0.30592,4.75861 0.82952,4.75861 2.71416,0 2.13979,4.17339 -1.5771,11.45909 -3.27491,6.41934 -3.28764,6.71425 -0.5123,11.86773 2.7305,5.07024 3.3138,9.93512 2.4238,20.21495 -0.22619,2.61251 0.0895,7.35706 0.7016,10.54345 1.0561,5.4981 0.77942,6.01405 -5.42767,10.12172 -6.28121,4.1567 -6.51892,4.6153 -5.99605,11.56802 0.30183,4.01352 -0.38899,9.02826 -1.55023,11.25333 -3.51438,6.73395 -2.62782,12.08629 2.67742,16.16403 35.91842,27.6078 38.46766,33.10214 42.11328,90.76649 2.56119,40.51142 1.49044,54.40452 -6.69435,86.8607 -2.16517,8.58579 -5.3418,22.47957 -7.05919,30.87508 -1.71738,8.3955 -3.87798,17.58017 -4.80134,20.41038 l -1.67883,5.14585 h -198.58605 c -157.82418,0 -198.58186,-0.40625 -198.56562,-1.97917 z M -338.01193,252.5242 c 0,-0.87084 -0.71251,-1.58334 -1.58334,-1.58334 -0.87084,0 -1.58334,0.7125 -1.58334,1.58334 0,0.87083 0.7125,1.58333 1.58334,1.58333 0.87083,0 1.58334,-0.7125 1.58334,-1.58333 z m 66.50017,-168.193732 c 0,-0.672839 -2.09546,-1.22335 -4.65657,-1.22335 -2.56111,0 -5.09811,-0.714433 -5.63777,-1.587612 -0.65194,-1.054867 -2.01762,-1.032953 -4.0697,0.06523 -1.69868,0.909105 -4.32733,1.445413 -5.84142,1.191794 -1.58974,-0.266285 -2.75294,0.535817 -2.75294,1.898327 0,1.382728 1.96448,2.699732 4.74558,3.181462 5.24967,0.909311 18.21282,-1.600294 18.21282,-3.525902 z M -401.6361,-2.9110308 c 0.27555,-2.3276323 -0.25882,-4.2320703 -1.1875,-4.2320703 -0.92867,0 -1.69822,0.5343763 -1.71012,1.1875029 -0.0127,0.6531266 -0.47618,2.8860278 -1.03178,4.96198871 -0.75314,2.81417599 -0.44552,3.58877619 1.20913,3.04456739 1.2206,-0.4014551 2.44472,-2.63434056 2.72027,-4.9619887 z m 0.8438,-17.6397222 c 1.11663,-2.909936 -1.85202,-4.926838 -4.03647,-2.742387 -1.69007,1.69007 -0.47446,5.066679 1.82405,5.066679 0.72628,0 1.72185,-1.045937 2.21242,-2.324292 z"
       style="fill:#919191;stroke-width:1.58333731"
       sodipodi:nodetypes="ccscccssscscssccssscssssscsccscccccccsccsccccscsccsssssssccssccccssssssccsccssssscscccscccsscccscssc" />
    <path
       inkscape:connector-curvature="0"
       id="path830"
       d="m -548.5958,457.84984 c 0,-1.94522 8.08121,-23.69052 10.74342,-28.90888 1.79519,-3.51888 4.42349,-10.98648 5.84067,-16.59468 1.41716,-5.60819 7.97699,-21.2405 14.57737,-34.73845 13.07154,-26.73159 13.59601,-29.26182 10.00755,-48.27991 -1.58349,-8.39216 -1.47197,-11.00805 0.74803,-17.54692 1.90685,-5.61649 2.51086,-12.26874 2.24446,-24.71926 -0.3596,-16.80637 -0.30721,-17.07986 3.90625,-20.39416 2.3489,-1.84765 5.69483,-6.15082 7.4354,-9.56261 2.6808,-5.25482 3.74354,-6.05798 6.95075,-5.25303 4.5573,1.14381 7.20434,-2.77483 7.2298,-10.70285 0.0125,-3.9028 1.43454,-6.62742 5.54168,-10.61814 3.03865,-2.95253 5.52482,-6.36744 5.52482,-7.5887 0,-3.1905 13.20941,-16.85909 19.63898,-20.32164 3.0006,-1.61594 6.2472,-4.67536 7.21467,-6.79873 0.96747,-2.12335 4.12016,-6.79965 7.00598,-10.39175 5.09303,-6.33953 7.76686,-13.57457 15.23467,-41.223 4.18122,-15.48033 3.29514,-26.26506 -2.53472,-30.85083 -5.08433,-3.99934 -5.00433,-7.14231 0.14888,-5.84894 3.68328,0.92444 5.84916,-1.32918 2.40017,-2.49742 -0.93716,-0.31742 -1.15122,-3.95525 -0.53709,-9.127666 0.86309,-7.269196 1.2351,-8.021344 2.40422,-4.860924 1.26873,3.429714 1.59298,3.529116 3.92028,1.201816 3.47268,-3.472702 1.54714,-7.532711 -3.57255,-7.532711 -3.61812,0 -4.04206,-0.488222 -3.09349,-3.562508 1.5641,-5.069213 3.38714,-12.915836 6.07336,-26.140596 1.28415,-6.322091 3.20832,-12.547219 4.27595,-13.833633 1.06773,-1.286541 1.51226,-4.047675 0.98795,-6.136651 -0.60536,-2.411945 -0.0922,-4.512352 1.40654,-5.756111 2.39219,-1.985347 3.4044,-14.258664 1.17219,-14.213096 -3.09016,0.06317 -5.97659,3.493285 -7.56176,8.986278 l -1.74047,6.031185 -1.14458,-5.854105 c -1.44126,-7.371527 2.22964,-17.1042845 6.45122,-17.1042845 5.09631,0 9.46091,-4.3934123 10.45593,-10.5249964 0.54869,-3.3812324 0.22355,-6.7840611 -0.76167,-7.9711841 -2.16809,-2.61238 1.13051,-7.910954 10.7376,-17.247973 3.80488,-3.697931 6.91796,-7.499556 6.91796,-8.448054 0,-2.200522 -0.0763,-2.192653 -7.07,0.729491 -4.62937,1.934268 -6.36134,2.049092 -8.17716,0.542103 -1.8015,-1.495114 -2.72062,-1.489113 -4.21582,0.02755 -1.49703,1.5185 -1.25787,2.422427 1.10181,4.164335 3.18677,2.352475 2.81611,2.679023 -4.99147,4.397577 -5.40218,1.18907 -5.78159,-1.465442 -1.08885,-7.617958 3.04672,-3.994459 5.4657,-5.55099 8.62664,-5.55099 2.44399,0 4.79699,-1.0536 5.30407,-2.375006 0.50125,-1.306253 2.28251,-2.375006 3.95834,-2.375006 3.77576,0 5.48157,-4.000633 3.38008,-7.927294 -2.40976,-4.502678 -1.91959,-7.331959 2.07473,-11.975634 2.31813,-2.694998 5.93319,-4.610108 9.89586,-5.242429 5.19428,-0.828862 6.4808,-1.793114 7.65573,-5.737998 1.5272,-5.127638 12.59471,-13.450086 17.88641,-13.450086 1.67997,0 4.43754,-1.046095 6.12794,-2.324655 1.69041,-1.278545 5.34272,-2.347298 8.11624,-2.375006 2.77353,-0.02771 7.04854,-0.814057 9.50002,-1.747482 2.4515,-0.933425 11.57114,-3.496499 20.2659,-5.695738 14.13208,-3.57456 17.99423,-3.91309 36.41676,-3.19211 22.42841,0.87775 25.38338,1.60923 34.85815,8.628783 4.6601,3.45253 7.37913,7.297981 10.29169,14.555238 2.17709,5.424688 5.44233,11.052311 7.25611,12.505831 8.82951,7.075823 21.6931,22.840161 23.1149,28.327327 0.84694,3.268625 3.16416,12.711712 5.14936,20.984648 1.98521,8.272937 4.73803,18.96046303 6.1174,23.750058 4.88187,16.951398 6.65738,27.883169 6.94336,42.750104 0.50874,26.448159 1.94269,34.833418 5.95683,34.833418 1.14096,0 2.99989,1.115097 4.13099,2.477986 1.72082,2.073459 1.36476,3.888502 -2.18114,11.118431 -4.61622,9.412306 -5.20941,15.975586 -2.43848,26.979986 1.62743,6.46309 1.46749,7.59392 -1.67525,11.84471 l -3.47446,4.69945 3.46529,5.60698 c 2.95803,4.78618 3.3413,7.15178 2.61821,16.1599 -0.46995,5.85465 -0.13664,11.88042 0.74863,13.53459 1.2833,2.39786 0.67438,3.90298 -3.11,7.68737 -2.58816,2.58816 -7.11495,5.19565 -10.05953,5.79443 -6.83831,1.39057 -8.28998,7.25688 -2.8173,11.38492 3.43584,2.59167 3.52505,3.14893 1.74106,10.87759 -2.21927,9.61442 -0.65177,13.0617 8.9718,19.73084 3.28576,2.27703 7.53328,6.24896 9.43896,8.82652 l 3.46486,4.68647 -5.58121,-3.29299 c -7.01615,-4.13962 -14.4496,-3.0522 -24.5123,3.58586 -10.83003,7.14426 -13.97251,15.57698 -8.64124,23.18845 4.40953,6.29549 17.24315,17.76419 21.00798,18.77368 4.52818,1.21418 12.71874,-6.16014 18.68952,-16.827 3.92711,-7.01583 4.24531,-14.48866 1.00325,-23.56104 -1.33404,-3.73306 7.03008,4.19375 10.62687,10.07128 7.83301,12.79996 9.79726,23.64172 11.5839,63.93778 1.88367,42.48442 1.08685,52.92987 -6.23664,81.75625 -2.21239,8.70835 -5.95597,25.09589 -8.31907,36.41675 l -4.29653,20.58339 -197.42681,0.40199 c -108.58475,0.22108 -197.42681,0.16776 -197.42681,-0.11853 z m 209.96312,-200.1798 c 2.29148,-3.01863 2.98237,-11.47919 0.93741,-11.47919 -2.77951,0 -5.06668,4.074 -5.06668,9.02502 0,5.87671 1.05516,6.50383 4.12927,2.45417 z m 26.55789,-19.58746 c 19.59245,-6.70578 28.88816,-11.62811 36.6116,-19.38679 8.51907,-8.55793 14.11906,-26.7069 6.85544,-22.21774 -1.13117,0.69911 -3.13795,1.43221 -4.45952,1.62911 -5.89604,0.87847 -18.68995,6.23107 -23.45283,9.81201 -3.52598,2.65098 -5.81304,6.15194 -7.05686,10.80249 -1.97572,7.38699 -4.73438,9.22818 -11.34193,7.56979 -4.5679,-1.14648 -4.98126,-2.47129 -2.17375,-6.96681 3.25961,-5.21949 2.09998,-5.2756 -14.22632,-0.68839 -1.58502,0.44535 -1.5005,1.79855 0.39583,6.3371 2.77027,6.63018 3.12524,12.67264 0.82788,14.09248 -2.47279,1.52827 -1.85914,3.95834 0.99958,3.95834 1.4206,0 9.08,-2.22371 17.02088,-4.94159 z m -10.10377,-6.14177 c 0,-0.87083 0.75456,-1.58333 1.67679,-1.58333 0.92223,0 1.23642,0.7125 0.69822,1.58333 -0.53821,0.87084 -1.29277,1.58334 -1.67679,1.58334 -0.38402,0 -0.69822,-0.7125 -0.69822,-1.58334 z m 147.25037,-64.45097 c 0,-3.74231 -3.90745,-1.35854 -4.50624,2.74908 -0.47835,3.28152 -0.22716,3.49237 1.97918,1.66129 1.38988,-1.15351 2.52706,-3.13818 2.52706,-4.41037 z m -7.91668,-25.79925 c 0,-0.87083 -0.75456,-1.58333 -1.67679,-1.58333 -0.92223,0 -1.23643,0.7125 -0.69822,1.58333 0.53821,0.87084 1.29277,1.58334 1.67679,1.58334 0.38402,0 0.69822,-0.7125 0.69822,-1.58334 z m -83.66132,-19.264 c 16.35362,-8.71638 20.45862,-17.27918 14.78891,-30.848713 l -2.37223,-5.677562 -6.24179,5.639055 c -6.86161,6.199066 -19.02834,10.56779 -29.43082,10.56779 -4.58142,0 -7.4664,0.96594 -9.45805,3.16668 -1.57619,1.74167 -4.85082,3.16667 -7.27697,3.16667 -14.37048,0 -0.77488,15.67906 13.82589,15.94467 3.36478,0.0611 7.54278,0.72361 9.28446,1.47204 5.1475,2.21196 7.00058,1.83536 16.8806,-3.43063 z m -9.04426,-32.023312 c 8.96814,-2.362228 10.14517,-3.994427 5.74934,-7.972609 -2.22416,-2.012849 -5.81892,-2.845748 -12.55588,-2.909208 -9.06804,-0.08534 -19.23818,2.652422 -19.23818,5.178985 0,1.812779 6.82937,5.9305 11.19948,6.752632 6.13204,1.153588 6.60784,1.119942 14.84524,-1.0498 z m 111.70563,-2.595833 c 0,-1.895524 -4.466,-3.928782 -5.76851,-2.626266 -1.38655,1.386544 0.96528,4.259288 3.48695,4.259288 1.25486,0 2.28156,-0.734859 2.28156,-1.633022 z m -98.11994,-22.029256 c -2.00919,-3.754203 -4.07371,-3.981776 -9.39087,-1.035185 -3.77412,2.091493 -3.75074,2.124411 3.16667,4.456397 7.49256,2.525898 8.97184,1.712791 6.2242,-3.421212 z m 29.08339,-2.704704 c 9.66287,-4.607891 16.39375,-24.714136 12.07559,-36.071761 -1.83142,-4.816971 -4.57784,-5.130488 -9.72152,-1.109746 -5.2598,4.111531 -21.36653,8.519004 -26.7838,7.329173 -3.77315,-0.828719 -12.61733,-9.625835 -12.61733,-12.550211 0,-0.493526 -1.425,-2.322312 -3.16667,-4.063983 -4.24477,-4.244769 -3.98338,-10.8372467 0.65917,-16.62504079 3.78502,-4.71874061 3.91405,-4.74942571 19.59478,-4.66015711 12.40541,0.070617 16.71276,0.6979667 20.11977,2.9303137 l 4.3351,2.8404594 -0.66312,-10.8469996 c -0.63138,-10.3279506 -1.15776,-11.5667846 -11.00006,-25.8887026 -13.80155,-20.083239 -18.19012,-22.412613 -39.23486,-20.825254 -12.04842,0.908788 -15.22795,1.68258 -16.62504,4.04598 -0.95012,1.607262 -3.28901,5.297973 -5.19756,8.20156 -1.90854,2.903603 -4.18837,9.164894 -5.06628,13.913972 -0.87793,4.749077 -2.71712,11.317393 -4.08712,14.596247 -1.36998,3.278854 -1.94016,6.4603163 -1.26705,7.0699328 0.67311,0.6096164 5.1426,2.356259 9.9322,3.8814402 15.18471,4.83535344 16.13911,7.070978 12.02258,28.162185 -3.88763,19.918493 -3.94638,20.796279 -1.60541,23.990218 1.80619,2.464322 4.46422,3.151807 13.33602,3.449332 8.72052,0.292427 11.08023,-0.110042 11.08023,-1.890251 0,-4.167154 3.48458,-2.327522 13.71035,7.238194 5.58556,5.225013 11.17407,9.500023 12.41893,9.500023 1.24485,0 4.73283,-1.177607 7.7511,-2.616924 z m -74.61478,-19.813264 c 6.26915,-6.590261 11.02872,-15.261106 9.62437,-17.533385 -1.36617,-2.210513 -6.89007,-1.239626 -6.89007,1.211 0,2.818926 -6.17579,5.502492 -12.66307,5.502492 -5.81554,0 -7.27826,4.182275 -4.11258,11.758812 3.09666,7.411348 6.30181,7.197028 14.04135,-0.938919 z m 68.21444,-35.337473 c 1.19991,-3.1269168 -4.54431,-6.102134 -9.41913,-4.878626 -4.03213,1.0120058 -5.16529,4.8357334 -1.8317,6.1808733 4.16078,1.6789237 10.38322,0.9586947 11.25083,-1.3022473 z m -135.85785,-61.723439 c 2.81256,-6.731416 2.88645,-8.774095 0.31503,-8.709463 -3.25152,0.0817 -7.81845,7.601602 -6.71947,11.064202 1.48285,4.672095 3.82884,3.809541 6.40444,-2.354739 z m -34.12255,41.247849 c 0,-1.378817 1.12812,-2.506945 2.50694,-2.506945 2.79606,0 2.30912,3.408545 -0.62673,4.387158 -1.03413,0.344708 -1.88021,-0.501379 -1.88021,-1.880213 z"
       style="fill:#6a6a6a;stroke-width:1.58333731"
       sodipodi:nodetypes="sccsssscccccscccssscsccsssccccccsscccssccccsscssccsscscsscscccssssccccccccscssccssscscsscscsscsscssccsccccscsssscsssccssscssssccscsccssccscsscsssscscccssscsccscsccccsssccssscccsssccsscsccsssss" />
    <path
       inkscape:connector-curvature="0"
       id="path828"
       d="m -536.99829,449.12293 c 0.53089,-5.07931 1.4281,-10.44127 1.9938,-11.91545 1.71203,-4.4615 4.9479,-0.15707 6.11847,8.13903 0.57969,4.10842 1.41766,8.71672 1.86216,10.24068 0.66682,2.2862 -0.21922,2.77084 -5.06576,2.77084 h -5.87393 z m 39.06928,5.98763 c 0,-2.21025 -1.75706,-3.9816 -5.50122,-5.54602 -5.05459,-2.11195 -5.42298,-2.71599 -4.53742,-7.44005 0.5301,-2.82784 2.29315,-6.61243 3.91789,-8.41023 1.62474,-1.7978 2.95408,-4.43396 2.95408,-5.85814 0,-3.31938 -8.6869,-16.5229 -14.51034,-22.0548 -6.92735,-6.58052 -6.04094,-11.84474 6.37744,-37.87403 11.1496,-23.36989 20.82219,-46.80283 31.16144,-75.49209 3.69473,-10.25211 8.29499,-19.48649 12.40165,-24.89462 3.59054,-4.72843 9.37826,-12.59063 12.8616,-17.47157 3.48334,-4.88092 7.58023,-10.24402 9.10419,-11.91797 1.52396,-1.67395 2.77084,-5.14033 2.77084,-7.70306 0,-2.56273 1.50239,-7.20586 3.33864,-10.31809 2.58633,-4.3835 2.92649,-6.15517 1.5096,-7.86244 -2.61046,-3.14541 -0.41305,-17.9193 3.02892,-20.36444 3.72609,-2.64696 5.7528,-7.03769 6.99276,-15.14937 0.57971,-3.79247 2.1024,-8.92272 3.38375,-11.40056 1.28134,-2.47785 2.32971,-6.14126 2.32971,-8.14092 0,-4.23858 7.61454,-28.06321 9.88821,-30.93854 2.2413,-2.83439 0.10989,-9.53845 -3.67682,-11.56504 -3.22644,-1.72672 -3.22025,-1.78068 0.81035,-7.06507 2.9717,-3.89609 4.06163,-7.24032 4.06163,-12.462274 0,-3.925473 0.69462,-7.566515 1.54361,-8.091217 0.8622,-0.532872 1.13074,-3.966149 0.60832,-7.777638 -0.78843,-5.752105 -0.37253,-7.347919 2.6484,-10.162348 l 3.58367,-3.338704 -4.97365,-2.831292 c -4.20183,-2.391932 -4.97523,-3.764448 -4.98369,-8.844427 -0.008,-4.471946 1.06044,-7.005174 4.16656,-9.883824 3.94124,-3.652616 4.19937,-4.809751 4.58162,-20.53848 0.24471,-10.069438 1.15832,-17.5754065 2.30787,-18.9605257 1.04654,-1.2610014 2.00535,-6.7530914 2.13067,-12.2046163 0.2226,-9.682772 0.42039,-10.113851 8.55727,-18.649812 9.45303,-9.916678 10.64826,-14.24177 3.97524,-14.384998 -4.00097,-0.08582 -3.78809,-0.374855 2.62433,-3.562509 3.83817,-1.907969 7.49236,-4.537797 8.1204,-5.84405 4.83626,-10.058783 6.04283,-14.207348 4.42323,-15.208318 -1.12759,-0.69689 -0.54351,-1.984095 1.65163,-3.639902 1.86789,-1.408948 4.63669,-5.005198 6.15289,-7.991673 2.98803,-5.885486 6.7151,-8.198361 6.7151,-4.167121 0,2.924012 2.10618,3.185911 6.53967,0.813186 2.55335,-1.366515 2.79556,-2.138677 1.25362,-3.996597 -1.05116,-1.266574 -1.63155,-2.48956 -1.28974,-2.717766 2.0388,-1.361195 29.84142,-9.346614 53.84696,-15.465824 7.74509,-1.97429 37.42269,-1.85002 46.96602,0.19666 10.69052,2.292702 18.85892,9.488558 24.23822,21.352313 3.18686,7.028466 7.7274,12.934979 16.4319,21.375274 6.61552,6.414701 12.43009,13.480723 12.92129,15.702272 0.4912,2.221548 1.84864,6.889195 3.01654,10.372536 1.1679,3.483342 2.56447,9.183356 3.10347,12.666698 0.53901,3.483342 2.62853,12.0333624 4.64336,19.000046 6.13931,21.227881 7.72543,30.922813 8.03024,49.083453 0.38448,22.907579 1.61847,33.652137 4.76927,41.526786 2.37324,5.931291 2.38026,7.083961 0.0844,13.846272 -2.2827,6.72354 -2.28302,8.23047 -0.003,17.02738 2.4159,9.32332 2.38959,9.8015 -0.77522,14.08214 -4.0984,5.54339 -4.1219,8.05304 -0.10941,11.68433 2.33375,2.11201 3.1374,4.77947 3.05539,10.14126 -0.13665,8.93576 -2.7675,16.57708 -2.94409,8.55124 -0.066,-2.99835 -1.70258,-6.86632 -4.01961,-9.50003 l -3.90831,-4.44246 -0.05,8.19103 c -0.0382,6.24676 -0.93882,9.25342 -3.79437,12.6667 -4.17083,4.98545 -7.0216,23.19413 -4.28681,27.38095 0.98091,1.50171 0.9408,3.01575 -0.11352,4.28615 -1.14688,1.38191 -0.88531,3.02773 0.88225,5.55126 1.38182,1.97284 2.51242,5.11363 2.51242,6.97951 0,1.86589 1.42501,5.20411 3.16668,7.41829 4.24852,5.40111 4.05595,5.9013 -2.27193,5.9013 -7.87415,0 -12.60882,2.22335 -20.78617,9.76097 -12.38589,11.41692 -18.27888,24.83708 -22.87705,52.09803 -1.59157,9.43596 -1.58125,14.72206 0.0529,27.06853 1.79123,13.53359 1.72223,16.44196 -0.58525,24.66575 -2.98329,10.63239 -3.35154,20.43274 -1.00016,26.61737 1.62039,4.26193 4.19182,20.21163 5.55176,34.4357 0.39988,4.18235 1.54267,9.12829 2.53955,10.99099 2.86115,5.34609 0.53237,34.19671 -3.16389,39.19654 l -2.92631,3.95834 -122.43838,0.40568 c -96.84224,0.32087 -122.73265,-0.01 -123.84596,-1.58333 -1.12408,-1.58842 -1.56932,-1.5904 -2.21064,-0.01 -0.53397,1.31482 -4.47754,1.97882 -11.75481,1.97882 -9.98668,0 -10.95142,-0.28608 -10.95142,-3.24747 z m 28.40244,-32.77345 c 0.11138,-7.67627 -1.90945,-8.78553 -4.32673,-2.37501 -2.99642,7.94639 -3.48942,14.83909 -1.59534,22.30479 l 1.87305,7.38279 1.9757,-10.2917 c 1.08663,-5.66043 2.01963,-13.31982 2.07332,-17.02087 z m 92.09269,-97.62667 c 0.95231,-3.56276 2.47583,-7.38559 3.38562,-8.49519 0.90978,-1.10959 1.19638,-2.47522 0.63686,-3.03472 -0.5595,-0.55952 -1.22167,-0.72042 -1.47146,-0.35758 -6.68634,9.71271 -9.17376,14.39355 -10.04754,18.90745 l -1.06511,5.50234 3.41508,-3.02228 c 1.87829,-1.66226 4.19425,-5.93728 5.14655,-9.50002 z m 10.92187,-20.32386 c 0,-0.88323 -1.05016,-0.71177 -2.375,0.38774 -1.30626,1.0841 -2.37501,2.68359 -2.37501,3.55442 0,0.88323 1.05017,0.71177 2.37501,-0.38774 1.30625,-1.0841 2.375,-2.68358 2.375,-3.55442 z m 7.31127,-7.13311 c 0.48319,-1.52396 2.59832,-6.46662 4.70031,-10.98369 4.82904,-10.37735 4.80367,-11.40538 -0.13648,-5.53427 -2.17709,2.58733 -3.95835,5.25777 -3.95835,5.93433 -6e-5,2.45275 -5.31081,7.02112 -8.16215,7.02112 -1.60669,0 -2.92127,-0.29798 -2.92127,-0.66216 0,-0.3642 -0.42212,-1.7622 -0.93803,-3.10664 -0.57224,-1.49123 0.77008,-4.02749 3.44224,-6.50395 3.15366,-2.92272 3.89835,-4.54141 2.65932,-5.78043 -2.08438,-2.08439 -5.16353,-0.46848 -5.16353,2.70975 0,1.26667 -0.86154,3.68257 -1.91452,5.36869 -2.95234,4.72743 2.05643,14.30809 7.48028,14.30809 2.45134,0 4.37828,-1.08694 4.91218,-2.77084 z m 22.51875,-14.25003 c -0.14852,-5.33794 -0.51392,-7.02422 -0.88319,-4.07626 -0.34639,2.76536 -1.65737,5.88074 -2.91328,6.92305 -3.30043,2.73913 -2.80385,6.2574 0.88319,6.2574 2.8289,0 3.13965,-0.9711 2.91328,-9.10419 z m -4.27619,-13.11521 c -3.95441,-3.29436 -6.55378,-3.99742 -6.55378,-1.77261 0,1.40983 5.9996,4.73891 8.70836,4.83212 0.87083,0.0299 -0.0988,-1.34682 -2.15458,-3.05951 z M -446.575,266.44289 c 3.27818,-4.68025 0.20375,-8.28968 -3.16881,-3.72021 -2.58703,3.50516 -2.98562,7.21823 -0.77486,7.21823 0.82146,0 2.59611,-1.57411 3.94367,-3.49802 z m 110.26392,-9.85724 c 2.72418,-6.15847 4.18074,-7.42399 11.84539,-10.2917 4.8066,-1.79838 9.35382,-3.26978 10.10494,-3.26978 2.53141,0 29.34147,-11.61466 34.9323,-15.13338 3.04792,-1.91827 7.26901,-5.35427 9.38018,-7.63556 2.11119,-2.28129 4.81844,-4.14779 6.01614,-4.14779 3.35103,0 11.52041,-4.62356 11.52041,-6.5201 0,-0.92884 1.41456,-3.4871 3.14347,-5.68504 3.13572,-3.98643 3.13572,-4.00712 0,-8.41084 -4.33355,-6.08591 -3.9643,-7.60411 1.98941,-8.1796 6.07647,-0.58737 7.25808,-3.88162 3.84576,-10.72178 -1.90048,-3.8096 -1.955,-5.00122 -0.29197,-6.38141 3.97242,-3.29681 7.57267,-25.3514 4.13845,-25.3514 -0.78371,0 -15.63747,14.19329 -33.00836,31.54063 -27.4127,27.37553 -32.50397,31.77811 -38.55434,33.33914 -3.83401,0.98918 -9.10842,2.41326 -11.72093,3.1646 -2.61251,0.75136 -8.20386,1.83411 -12.42524,2.40612 -5.63239,0.7632 -9.21447,2.45948 -13.45837,6.37312 -5.12958,4.73043 -5.55947,5.69854 -3.80396,8.56671 1.08854,1.77847 1.97917,4.18782 1.97917,5.35409 0,1.16627 1.74534,3.76016 3.87856,5.7642 3.08082,2.89429 3.68631,4.66071 2.94386,8.58851 -0.51406,2.71965 -1.69814,5.91255 -2.63128,7.09532 -1.26833,1.60765 -0.93586,2.70677 1.3171,4.35417 4.54462,3.32313 5.48398,2.81225 8.85931,-4.81823 z m -99.17918,-4.02227 c 5.34213,-2.03107 5.44513,-7.3222 0.16219,-8.33209 -2.64153,-0.50497 -4.93971,0.36216 -7.12502,2.6883 -6.02889,6.41746 -2.53047,9.25314 6.96283,5.64379 z M -182.0532,141.58033 c 0,-2.3647 -1.04871,-4.00668 -2.77084,-4.33833 -2.01917,-0.38885 -2.77084,0.50012 -2.77084,3.27694 0,2.0958 0.48983,4.30039 1.08854,4.8991 2.04599,2.04597 4.45314,-0.0285 4.45314,-3.83771 z m -74.41686,-17.98356 c 16.58375,-8.6147 29.29461,-20.70655 32.7902,-31.193309 1.7301,-5.190306 3.27897,-7.024001 6.70751,-7.940927 2.45186,-0.655739 6.18202,-2.811928 8.28922,-4.791527 3.2817,-3.082995 3.67988,-4.514205 2.77586,-9.977446 -1.35403,-8.182845 -3.12624,-11.475347 -6.80516,-12.642995 -2.61736,-0.830714 -2.86397,-2.198306 -2.16302,-11.994967 0.43513,-6.081535 0.0177,-15.148499 -0.92767,-20.148821 -0.94534,-5.000321 -2.51568,-16.929009 -3.48961,-26.508199 -2.45452,-24.141427 -2.46443,-24.171906 -10.34738,-31.833247 -3.87102,-3.762215 -7.03823,-7.844977 -7.03823,-9.072807 0,-2.837863 -12.23721,-14.180226 -19.16301,-17.761687 -4.79088,-2.477463 -6.91893,-2.54466 -23.18211,-0.731992 l -17.90703,1.995891 -5.43876,6.353964 c -4.11321,4.805365 -6.0924,9.292368 -8.12064,18.410237 -1.47504,6.630937 -3.63965,14.349009 -4.81027,17.151247 -1.17061,2.802253 -2.12839,6.836501 -2.12839,8.9650132 0,3.2993422 0.96106,4.0323956 6.51722,4.9711087 9.34032,1.578033 18.81618,10.4262754 18.81618,17.5698811 0,7.111179 -3.52315,6.991051 -6.12668,-0.20889 -3.31022,-9.1542536 -19.37682,-15.6307519 -21.57723,-8.6978725 -1.39812,4.4050657 0.0532,6.0663345 6.32798,7.2434825 6.93368,1.300775 9.86391,4.513287 7.12589,7.812392 -1.08409,1.306253 -3.16634,2.375005 -4.6272,2.375005 -1.46089,0 -3.45117,0.795026 -4.42287,1.76672 -0.97168,0.971678 -3.42981,2.592429 -5.46251,3.601648 -5.28819,2.625569 -6.03934,17.049264 -1.36504,26.211641 1.80141,3.531047 4.05055,6.420084 4.99809,6.420084 1.03548,0 1.33616,1.540492 0.75368,3.8613 -1.06074,4.226338 1.02168,6.43321 4.72827,5.01085 1.87064,-0.717821 2.00088,-1.593438 0.62069,-4.172394 -1.36497,-2.550424 -1.12031,-4.545682 1.11921,-9.12767 2.29111,-4.687533 3.97764,-6.041096 8.4077,-6.747739 4.43708,-0.707752 6.40475,-0.101017 9.87168,3.043918 3.88073,3.520313 4.90752,3.750625 9.89581,2.21968 7.47243,-2.293353 12.20226,-0.95073 11.5865,3.288972 -0.33231,2.288128 -2.05107,3.617118 -5.61501,4.341653 -6.08283,1.236634 -9.90561,4.085342 -9.90561,7.381565 0,1.798006 1.15805,2.147449 4.74156,1.430751 2.81851,-0.5637 8.73091,0.293313 14.57791,2.113106 5.40999,1.683768 10.1867,2.711053 10.61493,2.28284 0.42822,-0.428214 -0.0755,-3.972166 -1.11954,-7.875424 -2.72935,-10.204703 -2.39962,-11.238575 2.21065,-6.931566 6.38378,5.963846 8.81618,11.661421 7.00842,16.416215 -0.84634,2.226029 -2.52909,4.047326 -3.73946,4.047326 -1.21037,0 -4.01227,1.425003 -6.22644,3.166674 -4.67139,3.674498 -7.48464,4.064316 -7.48464,1.03707 0,-6.700144 -15.53676,-10.326667 -29.91121,-6.981757 -11.75207,2.734677 -13.61689,6.117762 -6.60087,11.974985 3.88241,3.241171 4.76276,4.732358 3.14074,5.319887 -5.0748,1.838191 -11.77596,-1.803643 -16.15582,-8.780112 -6.00235,-9.560823 -8.73937,-11.733494 -9.94483,-7.894234 -0.5093,1.622034 -1.58649,4.186359 -2.39376,5.69851 -1.9576,3.66693 -1.87685,15.019296 0.11559,16.250696 0.87083,0.5382 1.58334,2.08793 1.58334,3.44382 0,3.97012 10.47871,17.11028 17.18255,21.54668 6.80573,4.50381 13.61116,5.74939 27.94256,5.11423 7.74448,-0.34322 12.13334,-1.78895 23.75006,-7.82346 z m -66.15111,-31.514964 c -1.76426,-4.485705 -1.47665,-6.777269 0.5911,-4.709526 0.9525,0.952504 1.46582,3.054384 1.14073,4.670845 -0.57013,2.834696 -0.6316,2.836058 -1.73183,0.03863 z m 73.27613,-67.036074 c -3.04793,-0.340433 -6.96669,-1.27294 -8.70836,-2.07224 -1.74167,-0.799316 -4.59167,-1.708278 -6.33335,-2.019942 -2.70874,-0.484707 -2.37104,-1.063401 2.33522,-4.001743 6.36734,-3.975427 15.58994,-3.490213 22.20651,1.168297 7.98971,5.625297 4.1194,8.446803 -9.50002,6.925628 z M -262.47906,1.3618262 c -1.97574,-1.9757356 0.6907,-3.7549158 5.62745,-3.7549158 2.96985,0 4.3673,0.5661381 3.46906,1.40538596 -2.21262,2.06728414 -7.90776,3.53828364 -9.09651,2.34952984 z m 87.55087,87.9851918 c 0,-1.690275 -1.06875,-3.073225 -2.375,-3.073225 -2.34849,0 -3.31983,4.86075 -1.36249,6.818087 1.65077,1.650771 3.73749,-0.440073 3.73749,-3.744862 z M -397.53182,48.039509 c -1.15827,-1.874117 -8.56362,3.318991 -8.56362,6.005376 0,1.655553 1.22359,1.335672 4.68783,-1.225566 2.57833,-1.906227 4.32242,-4.057143 3.87579,-4.77981 z m 239.30316,405.229411 c 0.61476,-2.79901 2.09376,-7.6084 3.28666,-10.68753 l 2.1689,-5.59841 -1.08463,7.12502 c -0.59654,3.91875 -1.02555,8.72814 -0.95335,10.68752 0.079,2.14222 -0.79895,3.56251 -2.20202,3.56251 -1.80341,0 -2.07946,-1.15577 -1.21556,-5.08911 z m 5.5922,-21.16789 c 0.076,-1.84451 0.45116,-2.21968 0.95659,-0.95661 0.45738,1.14297 0.40114,2.50861 -0.12492,3.03474 -0.52613,0.52612 -0.90035,-0.40904 -0.8316,-2.07813 z m 3.04167,-17.19132 c 0,-1.25486 0.64605,-2.68085 1.43568,-3.16886 0.78962,-0.48802 1.06277,0.53868 0.607,2.28155 -0.9668,3.69708 -2.04268,4.16442 -2.04268,0.88731 z m 5.59533,-22.26017 c 0.56498,-3.48334 1.68932,-7.4021 2.49852,-8.70836 0.96772,-1.56215 1.11969,-0.20738 0.44403,3.95835 -0.56498,3.48334 -1.68933,7.4021 -2.49852,8.70835 -0.96772,1.56215 -1.11969,0.20739 -0.44403,-3.95834 z m 59.72079,-517.75126 c 0.196276,-7.60946 1.536608,0.11089 0.688565,3.58097 -0.396293,1.51381 -0.706168,-0.0976 -0.688593,-3.58097 z"
       style="fill:#2a2a2a;stroke-width:1.58333731"
       sodipodi:nodetypes="scscscsccssscssccsscccccssccsccscscssscscccsccscccssccsscsscscsccccccscccscssccscccscsccscccsscsccsccccccscscsssccsssccscsscccsccsccsssscssccsscscssssccccsscccccccccscscscsccccscccscscsccscsscccsccsscccsccsccsscccccscssscccccscccccccccccssccsccsscscsccsscccsscccccsccsssscscccc" />
  </g>
</svg>
