<?xml version="1.0" encoding="UTF-8" standalone="no"?>
<!-- Created with Inkscape (http://www.inkscape.org/) -->

<svg
   xmlns:dc="http://purl.org/dc/elements/1.1/"
   xmlns:cc="http://creativecommons.org/ns#"
   xmlns:rdf="http://www.w3.org/1999/02/22-rdf-syntax-ns#"
   xmlns:svg="http://www.w3.org/2000/svg"
   xmlns="http://www.w3.org/2000/svg"
   xmlns:sodipodi="http://sodipodi.sourceforge.net/DTD/sodipodi-0.dtd"
   xmlns:inkscape="http://www.inkscape.org/namespaces/inkscape"
   width="512"
   height="512"
   viewBox="0 0 135.46666 135.46667"
   version="1.1"
   id="svg859"
   inkscape:version="0.92.5 (2060ec1f9f, 2020-04-08)"
   sodipodi:docname="logo.svg"
   inkscape:export-filename="/home/awt/code/dci/fbw14/React_Intro/Projects/01-The-Social-Network/frontend/public/logo512.png"
   inkscape:export-xdpi="96"
   inkscape:export-ydpi="96">
  <defs
     id="defs853" />
  <sodipodi:namedview
     id="base"
     pagecolor="#ffffff"
     bordercolor="#666666"
     borderopacity="1.0"
     inkscape:pageopacity="0.0"
     inkscape:pageshadow="2"
     inkscape:zoom="0.35"
     inkscape:cx="-125.71429"
     inkscape:cy="560"
     inkscape:document-units="mm"
     inkscape:current-layer="layer1"
     showgrid="false"
     units="px"
     inkscape:window-width="1866"
     inkscape:window-height="1016"
     inkscape:window-x="54"
     inkscape:window-y="27"
     inkscape:window-maximized="1" />
  <metadata
     id="metadata856">
    <rdf:RDF>
      <cc:Work
         rdf:about="">
        <dc:format>image/svg+xml</dc:format>
        <dc:type
           rdf:resource="http://purl.org/dc/dcmitype/StillImage" />
        <dc:title></dc:title>
      </cc:Work>
    </rdf:RDF>
  </metadata>
  <g
     inkscape:label="Layer 1"
     inkscape:groupmode="layer"
     id="layer1"
     transform="translate(0,-161.53332)">
    <path
       style="fill:#a2a5e3;fill-opacity:1;stroke:#142dff;stroke-width:17.17616653;stroke-linecap:round;stroke-linejoin:round;stroke-miterlimit:4;stroke-dasharray:none;stroke-opacity:0.2;paint-order:stroke fill markers"
       d="m 39.975385,176.50911 c -0.08336,8.1e-4 -0.148605,0.0242 -0.195723,0.0709 -1.334667,1.33467 2.416624,7.9006 6.821939,11.93947 2.459434,2.25481 4.954629,5.3671 5.544136,6.91767 1.156784,3.04262 1.404056,2.71931 -7.968654,10.42438 -2.468455,2.02921 -4.662575,5.11407 -5.625326,7.90833 -0.868111,2.51976 -2.58013,5.98729 -3.80429,7.7064 -4.250266,5.96901 -12.768437,15.16517 -15.860308,17.12357 -4.288646,2.71637 -4.219498,7.38455 0.185253,12.72821 4.753509,5.76684 7.583328,6.80547 18.902926,6.93434 5.468828,0.0624 13.230966,0.91321 17.248417,1.88966 5.813116,1.41287 8.012431,1.52801 10.771934,0.56607 3.378168,-1.17761 3.591772,-1.06726 8.324542,4.30173 6.575512,7.45945 9.798953,11.63131 12.336959,17.00489 a 61.649097,61.649097 0 0 0 33.09004,-54.60056 61.649097,61.649097 0 0 0 -2.21643,-16.35147 c -4.14773,-0.2066 -7.65361,-0.41239 -9.22773,-0.59313 -9.624738,-1.10496 -20.05637,-4.37644 -25.701993,-8.06024 -3.599183,-2.34844 -4.010766,-3.06738 -3.800182,-6.63878 0.264992,-4.49073 -0.629135,-6.56601 -2.830302,-6.56601 -0.816603,0 -3.905414,-2.41948 -6.863581,-5.37765 -3.391941,-3.3917 -5.379745,-4.75073 -5.379745,-3.67735 0,2.64171 2.681375,7.14678 6.299606,10.58672 4.315548,4.10295 4.259247,5.86612 -0.07088,2.22268 -2.791842,-2.34905 -4.249662,-2.78226 -8.59924,-2.55146 -2.880642,0.15303 -5.564152,-0.1776 -5.962445,-0.73465 -0.398294,-0.55713 -2.610456,-2.42182 -4.917741,-4.14354 -2.307285,-1.72173 -5.504871,-4.59617 -7.104973,-6.387 -1.400069,-1.56696 -2.813348,-2.64867 -3.396411,-2.64304 z"
       id="path832"
       inkscape:connector-curvature="0" />
  </g>
</svg>
