<?xml version="1.0" encoding="UTF-8" standalone="no"?>
<!-- Created with Inkscape (http://www.inkscape.org/) -->

<svg
   xmlns:dc="http://purl.org/dc/elements/1.1/"
   xmlns:cc="http://creativecommons.org/ns#"
   xmlns:rdf="http://www.w3.org/1999/02/22-rdf-syntax-ns#"
   xmlns:svg="http://www.w3.org/2000/svg"
   xmlns="http://www.w3.org/2000/svg"
   xmlns:sodipodi="http://sodipodi.sourceforge.net/DTD/sodipodi-0.dtd"
   xmlns:inkscape="http://www.inkscape.org/namespaces/inkscape"
   width="115.69961mm"
   height="35.083847mm"
   viewBox="0 0 115.69961 35.083847"
   version="1.1"
   id="svg8"
   inkscape:version="0.92.5 (2060ec1f9f, 2020-04-08)"
   sodipodi:docname="rindr.svg">
  <defs
     id="defs2" />
  <sodipodi:namedview
     id="base"
     pagecolor="#ffffff"
     bordercolor="#666666"
     borderopacity="1.0"
     inkscape:pageopacity="0.0"
     inkscape:pageshadow="2"
     inkscape:zoom="3.1032048"
     inkscape:cx="218.64493"
     inkscape:cy="34.35985"
     inkscape:document-units="mm"
     inkscape:current-layer="layer1"
     showgrid="false"
     inkscape:snap-global="false"
     fit-margin-top="0"
     fit-margin-left="0"
     fit-margin-right="0"
     fit-margin-bottom="0"
     inkscape:window-width="1866"
     inkscape:window-height="1016"
     inkscape:window-x="54"
     inkscape:window-y="27"
     inkscape:window-maximized="1" />
  <metadata
     id="metadata5">
    <rdf:RDF>
      <cc:Work
         rdf:about="">
        <dc:format>image/svg+xml</dc:format>
        <dc:type
           rdf:resource="http://purl.org/dc/dcmitype/StillImage" />
        <dc:title />
      </cc:Work>
    </rdf:RDF>
  </metadata>
  <g
     inkscape:label="Layer 1"
     inkscape:groupmode="layer"
     id="layer1"
     transform="translate(-41.867996,-72.297884)">
    <path
       style="font-style:normal;font-variant:normal;font-weight:bold;font-stretch:normal;font-size:30.62836456px;line-height:1.25;font-family:'DejaVu Math TeX Gyre';-inkscape-font-specification:'DejaVu Math TeX Gyre Bold';letter-spacing:0px;word-spacing:0px;fill:#a2a5e3;fill-opacity:1;stroke:#142eff;stroke-width:3.05509877;stroke-linecap:round;stroke-linejoin:round;stroke-miterlimit:4;stroke-dasharray:none;stroke-opacity:0.20297032;paint-order:stroke fill markers"
       d="m 56.805475,76.739632 c -0.02068,2e-4 -0.03692,0.006 -0.04858,0.01757 -0.331404,0.33141 0.600074,1.961787 1.693953,2.964677 0.6107,0.55989 1.230279,1.332705 1.37666,1.717725 0.287241,0.75551 0.348641,0.675232 -1.97869,2.588472 -0.612939,0.50387 -1.157761,1.269865 -1.396814,1.963705 -0.215559,0.62568 -0.640678,1.486708 -0.944645,1.913578 -1.055383,1.48216 -3.170517,3.765647 -3.938261,4.251937 -1.064908,0.6745 -1.04774,1.83365 0.04599,3.16053 1.180338,1.43196 1.883012,1.689859 4.69377,1.721859 1.357956,0.0155 3.285371,0.226762 4.282943,0.469222 1.443442,0.35083 1.989562,0.37942 2.674772,0.14056 0.838822,-0.29241 0.891868,-0.265018 2.067057,1.068152 1.632762,1.852261 2.433169,2.888171 3.06338,4.222481 a 15.308036,15.308036 0 0 0 8.216551,-13.557829 15.308036,15.308036 0 0 0 -0.550352,-4.060217 c -1.029922,-0.0513 -1.900462,-0.102398 -2.291334,-0.147278 -2.38991,-0.27437 -4.980181,-1.086708 -6.382038,-2.001428 -0.893712,-0.58314 -0.995913,-0.761668 -0.943613,-1.648478 0.0658,-1.11509 -0.156228,-1.630391 -0.7028,-1.630391 -0.20276,0 -0.969749,-0.600779 -1.704288,-1.33532 -0.842251,-0.84219 -1.335836,-1.179652 -1.335836,-0.913122 0,0.65596 0.665806,1.77461 1.564245,2.62878 1.07159,1.0188 1.05761,1.456604 -0.01757,0.551904 -0.693241,-0.58329 -1.055232,-0.690863 -2.13527,-0.633553 -0.715291,0.038 -1.381629,-0.0441 -1.48053,-0.182417 -0.09888,-0.138341 -0.648193,-0.601358 -1.221114,-1.028878 -0.572922,-0.42752 -1.366914,-1.14127 -1.764234,-1.58595 -0.347654,-0.38909 -0.698584,-0.657691 -0.843359,-0.656291 z m 20.346045,3.730005 v 1.395264 h 2.494421 V 98.628218 H 77.15152 v 1.394232 h 7.912177 v -1.394232 h -2.76262 V 90.92998 h 2.923336 c 0.840398,0 1.511099,0.178785 2.011762,0.536402 0.482782,0.339737 1.019651,1.117808 1.609722,2.333707 l 3.057694,6.222361 H 148.63708 V 98.628218 H 94.129296 l -2.843239,-5.793961 c -0.321855,-0.679471 -0.71487,-1.233807 -1.179772,-1.662948 -0.429141,-0.411259 -0.956506,-0.696899 -1.582333,-0.857828 1.484109,-0.196691 2.601254,-0.679612 3.35225,-1.448491 0.768876,-0.768878 1.153935,-1.824118 1.153935,-3.165181 0,-1.66292 -0.518888,-2.950372 -1.555978,-3.862297 -1.05497,-0.911924 -2.521206,-1.367875 -4.398697,-1.367875 z m 5.149557,1.395264 h 3.862294 c 1.323184,0 2.298023,0.312614 2.923855,0.938444 0.625827,0.625829 0.938443,1.591161 0.938443,2.896464 0,1.305302 -0.312616,2.271152 -0.938443,2.89698 -0.625832,0.62583 -1.600671,0.938445 -2.923855,0.938445 h -3.862294 z m 12.249898,1.187007 v 1.026811 h 1.835547 v 12.335164 h -1.835547 v 1.026294 h 5.624975 V 96.413883 H 98.340406 V 84.078719 h 1.835544 v -1.026811 z m 7.677565,0 v 1.026811 h 1.93425 v 12.335164 h -1.93425 v 1.026294 h 5.05292 v -1.026294 h -1.93425 v -10.81536 l 9.21701,12.118123 h 1.16427 V 84.078719 h 1.93477 v -1.026811 h -5.05292 v 1.026811 h 1.93424 v 10.322367 l -8.62531,-11.349178 z m 17.38809,0 v 1.026811 h 1.83554 v 12.335164 h -1.83554 v 1.026294 h 5.7242 c 2.47368,0 4.401,-0.631811 5.78259,-1.894975 1.39474,-1.276319 2.09238,-3.045553 2.09238,-5.308719 0,-2.263165 -0.69764,-4.026438 -2.09238,-5.2896 -1.38159,-1.263161 -3.30891,-1.894975 -5.78259,-1.894975 z m 14.78669,0 v 1.026811 h 1.83555 v 12.335164 h -1.83555 v 1.026294 h 5.82238 v -1.026294 h -2.03295 V 90.74963 h 2.15129 c 0.61842,0 1.11161,0.131133 1.48002,0.394291 0.35527,0.25 0.7502,0.822985 1.18442,1.717724 l 2.24999,4.578532 h 3.39463 v -1.026294 h -1.75649 l -2.09237,-4.263305 c -0.23683,-0.500001 -0.52606,-0.907906 -0.86817,-1.223698 -0.31579,-0.30263 -0.70427,-0.513066 -1.16478,-0.631486 1.09209,-0.144738 1.91491,-0.499778 2.46755,-1.065568 0.56579,-0.565793 0.84852,-1.342211 0.84852,-2.329057 0,-1.223688 -0.38147,-2.170631 -1.14463,-2.841687 -0.77632,-0.671054 -1.85542,-1.007174 -3.23701,-1.007174 z m -10.99674,1.026811 h 1.79627 c 1.86843,0 3.30206,0.53256 4.30206,1.598352 1,1.039477 1.50017,2.559407 1.50017,4.559412 0,2.000006 -0.50017,3.525897 -1.50017,4.578532 -1,1.065793 -2.43363,1.598868 -4.30206,1.598868 h -1.79627 z m 14.78617,0 h 2.84221 c 0.97369,0 1.69076,0.229867 2.15129,0.690397 0.46053,0.460527 0.69091,1.171124 0.69091,2.131653 0,0.96053 -0.23038,1.671125 -0.69091,2.131653 -0.46053,0.460527 -1.1776,0.690914 -2.15129,0.690914 h -2.84221 z"
       id="path819"
       inkscape:connector-curvature="0" />
  </g>
</svg>
